<?xml version="1.0" encoding="utf-8"?>
<!-- Generator: Adobe Illustrator 16.0.0, SVG Export Plug-In . SVG Version: 6.00 Build 0)  -->
<!DOCTYPE svg PUBLIC "-//W3C//DTD SVG 1.1//EN" "http://www.w3.org/Graphics/SVG/1.1/DTD/svg11.dtd">
<svg version="1.1" id="Capa_1" xmlns="http://www.w3.org/2000/svg" xmlns:xlink="http://www.w3.org/1999/xlink" x="0px" y="0px"
	 width="2500px" height="2246px" viewBox="0 0 2500 2246" enable-background="new 0 0 2500 2246" xml:space="preserve">
<g>
	<path fill="#53C1DE" d="M1970.9,740.1c-23.5-8.1-47.2-15.5-71-22.4c4-16.1,7.6-32.2,11-48.4c53.8-261,18.6-471.3-101.4-540.5
		c-115.1-66.4-303.4,2.8-493.5,168.3c-18.7,16.3-37.1,33.2-54.9,50.4c-12-11.5-24.2-22.7-36.6-33.8
		c-199.3-176.9-399-251.5-518.9-182.1c-115,66.6-149.1,264.2-100.7,511.6c4.8,24.5,10.3,48.9,16.3,73.1c-28.3,8-55.6,16.6-81.7,25.7
		c-233.6,81.4-382.8,209.1-382.8,341.5c0,136.8,160.1,273.9,403.5,357.1c19.7,6.7,39.6,12.9,59.7,18.7
		c-6.5,26.1-12.3,52.4-17.3,78.8c-46.2,243.1-10.1,436,104.6,502.2c118.5,68.3,317.3-1.9,510.9-171.1c15.3-13.4,30.7-27.6,46-42.4
		c19.4,18.7,39.3,36.8,59.6,54.4c187.5,161.4,372.7,226.5,487.3,160.2c118.4-68.5,156.8-275.8,106.9-528.1
		c-3.8-19.3-8.3-38.9-13.2-59c14-4.1,27.7-8.4,41-12.8c253-83.8,417.5-219.3,417.5-357.9C2363.3,950.6,2209.3,822.1,1970.9,740.1z
		 M1377.8,368.2c162.9-141.8,315.2-197.7,384.5-157.7c73.9,42.6,102.6,214.5,56.2,439.8c-3,14.7-6.4,29.3-9.9,43.9
		c-91.5-21.1-190.9-36.8-295-46.6c-60.6-86.3-123.5-164.8-186.5-232.8C1343.6,398.8,1360.6,383.3,1377.8,368.2z M808.3,1196.6
		c20,38.5,40.8,76.6,62.6,114.2c22.2,38.3,45.3,76.1,69.3,113.3c-72.3-8.1-140.4-19-203.4-32.7
		C756.2,1328.5,780.2,1263.1,808.3,1196.6z M808.1,974.9C780.7,909.8,757.2,845.8,738,784c63-14.1,130.1-25.6,200-34.3
		c-23.4,36.5-46,73.6-67.6,111.2C848.8,898.4,828,936.4,808.1,974.9z M858.2,1085.8c29-60.5,60.3-119.8,93.9-177.9v0
		c33.5-58.1,69.2-114.9,107-170.3c65.6-5,132.9-7.6,200.9-7.6c68.3,0,135.7,2.6,201.3,7.6c37.4,55.3,72.9,111.9,106.3,169.7
		c33.6,58,65.3,117,95.1,177c-29.5,60.6-61.1,120.2-94.8,178.6h0c-33.4,58.1-68.7,115-105.9,170.8c-65.5,4.7-133.1,7.1-202.1,7.1
		c-68.7,0-135.5-2.1-199.8-6.3c-38.1-55.6-74.1-112.7-107.8-171.1C918.8,1205.5,887.4,1146.2,858.2,1085.8z M1649.6,1310.1
		c22.2-38.5,43.5-77.5,64-116.9c29.5,67.2,54.4,132.3,74.1,194.1c-64,14.6-133.1,26.4-205.8,35.1
		C1605.2,1385.4,1627.7,1348,1649.6,1310.1z M1712.7,975c-20.4-38.7-41.6-77-63.5-114.8c-21.6-37.3-43.9-74.1-67.1-110.3
		c70.4,8.9,137.9,20.7,201.2,35.2C1764.3,845.9,1740.6,909.7,1712.7,975z M1261.1,482.1c43.5,47.1,87,99.7,129.8,156.8
		c-86.9-4.1-173.9-4.1-260.8-0.1C1173,582.3,1216.9,529.8,1261.1,482.1z M752.8,213.2c73.8-42.7,237.1,18.2,409.1,171
		c11,9.8,22,20,33.1,30.6c-64.1,68.8-127.4,147.2-188,232.6c-103.8,9.6-203.1,25.1-294.4,45.8c-5.6-22.5-10.7-45.2-15.2-68v0
		C655.9,413.2,683.5,253.3,752.8,213.2z M645.2,1368.4c-18.3-5.2-36.5-10.9-54.5-17c-107.6-36.8-196.4-84.6-257.4-136.7
		c-54.7-46.9-82.4-93.4-82.4-131.2c0-80.3,119.8-182.8,319.6-252.5c25.1-8.7,50.4-16.7,75.9-23.9c27.6,89.8,63.8,183.7,107.5,278.7
		C709.8,1182.2,673.1,1277.6,645.2,1368.4z M1156,1798.1c-85.6,74.8-171.4,127.9-247,154.6h0c-67.9,24-122,24.7-154.8,5.8
		c-69.6-40.1-98.5-195.1-59.1-403c4.7-24.6,10.1-49,16.1-73.3c90.4,20,190.4,34.4,297.4,43c61,85.9,125,164.9,189.4,234
		C1184.3,1772.6,1170.3,1785.5,1156,1798.1z M1263.7,1691.6c-44.7-48.2-89.2-101.5-132.8-158.9c42.2,1.7,85.3,2.5,129.1,2.5
		c45,0,89.4-1,133.2-3C1350.2,1590.6,1306.8,1644,1263.7,1691.6z M1836.1,1822.7c-13.1,70.8-39.6,118.1-72.2,137
		c-69.5,40.3-218.3-12.1-378.6-150.1c-18.4-15.8-36.9-32.7-55.5-50.6c62.2-68,124.3-147.1,185-234.9
		c106.7-9.5,207.5-24.9,298.8-46.1c4.5,18.2,8.5,36,11.9,53.4C1847.5,1643,1850.7,1743.9,1836.1,1822.7z M1916.1,1351.9
		L1916.1,1351.9c-12.1,4-24.5,7.9-37.1,11.6c-27.9-88.4-65.6-182.4-111.7-279.5c44-94.8,80.2-187.6,107.4-275.5
		c22.6,6.5,44.5,13.4,65.6,20.7c204.2,70.3,328.7,174.2,328.7,254.3C2269,1168.8,2134.5,1279.5,1916.1,1351.9z"/>
	<path fill="#53C1DE" d="M1260,1280.5c108.8,0,197-88.2,197-197c0-108.8-88.2-197-197-197c-108.8,0-197,88.2-197,197
		C1063,1192.3,1151.2,1280.5,1260,1280.5z"/>
</g>
</svg>
